<?xml version="1.0" encoding="utf-8"?>
<!-- Generator: Adobe Illustrator 27.7.0, SVG Export Plug-In . SVG Version: 6.00 Build 0)  -->
<svg version="1.1" id="Livello_1" xmlns="http://www.w3.org/2000/svg" xmlns:xlink="http://www.w3.org/1999/xlink" x="0px" y="0px"
	 viewBox="0 0 420 310" style="enable-background:new 0 0 420 310;" xml:space="preserve">
<style type="text/css">
	.st0{fill:#FFFFFF;}
	.st1{fill:none;}
	.st2{fill:#4C78A8;}
	.st3{fill:#F58518;}
	.st4{fill:#E45756;}
	.st5{font-family:'Helvetica';}
	.st6{font-size:10px;}
	.st7{display:none;}
	.st8{font-family:'Helvetica-Bold';}
	.st9{font-size:11px;}
	.st10{font-family:'MyriadPro-Regular';}
	.st11{font-size:19px;}
</style>
<rect class="st0" width="420" height="310"/>
<g transform="translate(5,5)">
	<g>
		<g transform="translate(0,0)">
			<path class="st1" d="M0,0h300v300H0V0z"/>
			<g>
				<g>
					<path class="st2" d="M281.7,119.3C264.6,66.5,215.4,30.8,160,30.8v128L281.7,119.3z"/>
					<path class="st3" d="M281.7,198.3c8.4-25.7,8.4-53.4,0-79.1L160,158.8L281.7,198.3z"/>
					<path class="st4" d="M160,30.8c-70.7,0-128,57.3-128,128c0,70.7,57.3,128,128,128c55.4,0,104.6-35.7,121.7-88.4L160,158.8V30.8
						z"/>
				</g>
				<g>
					<g transform="translate(318,0)">
						<path pointer-events="none" class="st1" d="M0,0h92v53H0V0z"/>
						<g>
							<g>
								<g transform="translate(0,16)">
									<path pointer-events="none" class="st1" d="M0,0L0,0L0,0L0,0z"/>
									<g>
										<g>
											<g transform="translate(0,0)">
												<path pointer-events="none" class="st1" d="M0,0h91.1v11H0V0z"/>
												<g>
													<g pointer-events="none">
														<path class="st2" d="M11,6c0,2.8-2.2,5-5,5S1,8.8,1,6s2.2-5,5-5S11,3.2,11,6"/>
													</g>
													<g pointer-events="none">
														<text transform="matrix(1 0 0 1 16 9)" class="st5 st6">Dai 20 ai 24 anni</text>
													</g>
												</g>
												<path pointer-events="none" class="st7" d="M0,0"/>
											</g>
											<g transform="translate(0,13)">
												<path pointer-events="none" class="st1" d="M0,0h91.1v11H0V0z"/>
												<g>
													<g pointer-events="none">
														<path class="st3" d="M11,6c0,2.8-2.2,5-5,5S1,8.8,1,6s2.2-5,5-5S11,3.2,11,6"/>
													</g>
													<g pointer-events="none">
														<text transform="matrix(1 0 0 1 16 9)" class="st5 st6">Dai 25 ai 29 anni</text>
													</g>
												</g>
												<path pointer-events="none" class="st7" d="M0,0"/>
											</g>
											<g transform="translate(0,26)">
												<path pointer-events="none" class="st1" d="M0,0h91.1v11H0V0z"/>
												<g>
													<g pointer-events="none">
														<path class="st4" d="M11,6c0,2.8-2.2,5-5,5S1,8.8,1,6s2.2-5,5-5S11,3.2,11,6"/>
													</g>
													<g pointer-events="none">
														<text transform="matrix(1 0 0 1 16 9)" class="st5 st6">Dai 30 ai 34 anni</text>
													</g>
												</g>
												<path pointer-events="none" class="st7" d="M0,0"/>
											</g>
										</g>
									</g>
									<path pointer-events="none" class="st7" d="M0,0"/>
								</g>
							</g>
							<g pointer-events="none">
								<text transform="matrix(1 0 0 1 0 9)" class="st8 st9">Età</text>
							</g>
						</g>
						<path pointer-events="none" class="st7" d="M0,0"/>
					</g>
				</g>
			</g>
			<path class="st7" d="M0,0"/>
		</g>
	</g>
</g>
<rect x="256.5" y="43.5" class="st1" width="40" height="33"/>
<text transform="matrix(1 0 0 1 256.5117 56.9897)" class="st10 st11">3</text>
<rect x="307.5" y="160.8" class="st1" width="43" height="33"/>
<text transform="matrix(1 0 0 1 307.5 174.2778)" class="st10 st11">2</text>
<rect x="37" y="244" class="st1" width="43" height="33"/>
<text transform="matrix(1 0 0 1 36.9997 257.4897)" class="st10 st11">5</text>
</svg>
