<svg xmlns="http://www.w3.org/2000/svg" xmlns:xlink="http://www.w3.org/1999/xlink" version="1.1" class="marks" width="540" height="390" viewBox="0 0 540 390"><rect width="540" height="390" fill="white"/><g fill="none" stroke-miterlimit="10" transform="translate(5,5)"><g class="mark-group role-frame root" role="graphics-object" aria-roledescription="group mark container"><g transform="translate(0,0)"><path class="background" aria-hidden="true" d="M0,0h450v380h-450Z"/><g><g class="mark-arc role-mark layer_0_marks" role="graphics-object" aria-roledescription="arc mark container"><path aria-label="Numero: 19; Sesso: Uomini" role="graphics-symbol" aria-roledescription="arc mark" transform="translate(225,190)" d="M0,-120A120,120,0,1,0,115.911,-31.058L0,0Z" fill="#206792" stroke="black"/><path aria-label="Numero: 5; Sesso: Donne" role="graphics-symbol" aria-roledescription="arc mark" transform="translate(225,190)" d="M115.911,-31.058A120,120,0,0,0,0,-120L0,0Z" fill="#2e93d1" stroke="black"/></g><g class="mark-text role-mark layer_1_marks" role="graphics-object" aria-roledescription="text mark container"><text aria-label="Numero: 19; Sesso: Uomini; label: 79%" role="graphics-symbol" aria-roledescription="text mark" text-anchor="middle" transform="translate(133.68578564869193,314.0030010436853)" font-family="sans-serif" font-size="18px" fill="#206792">79%</text><text aria-label="Numero: 5; Sesso: Donne; label: 21%" role="graphics-symbol" aria-roledescription="text mark" text-anchor="middle" transform="translate(316.3142143513081,75.99699895631473)" font-family="sans-serif" font-size="18px" fill="#2e93d1">21%</text></g><g class="mark-group role-legend" role="graphics-symbol" aria-roledescription="legend" aria-label="Symbol legend titled 'Sesso' for fill color with 2 values: Donne, Uomini"><g transform="translate(468,0)"><path class="background" aria-hidden="true" d="M0,0h62v55h-62Z" pointer-events="none"/><g><g class="mark-group role-legend-entry"><g transform="translate(0,25)"><path class="background" aria-hidden="true" d="M0,0h0v0h0Z" pointer-events="none"/><g><g class="mark-group role-scope" role="graphics-object" aria-roledescription="group mark container"><g transform="translate(0,0)"><path class="background" aria-hidden="true" d="M0,0h61.5654296875v14h-61.5654296875Z" pointer-events="none" opacity="1"/><g><g class="mark-symbol role-legend-symbol" pointer-events="none"><path transform="translate(7,7)" d="M5,0A5,5,0,1,1,-5,0A5,5,0,1,1,5,0" fill="#2e93d1" stroke="black" stroke-width="1.5" opacity="1"/></g><g class="mark-text role-legend-label" pointer-events="none"><text text-anchor="start" transform="translate(18,11)" font-family="sans-serif" font-size="14px" fill="#000" opacity="1">Donne</text></g></g><path class="foreground" aria-hidden="true" d="" pointer-events="none" display="none"/></g><g transform="translate(0,16)"><path class="background" aria-hidden="true" d="M0,0h61.5654296875v14h-61.5654296875Z" pointer-events="none" opacity="1"/><g><g class="mark-symbol role-legend-symbol" pointer-events="none"><path transform="translate(7,7)" d="M5,0A5,5,0,1,1,-5,0A5,5,0,1,1,5,0" fill="#206792" stroke="black" stroke-width="1.5" opacity="1"/></g><g class="mark-text role-legend-label" pointer-events="none"><text text-anchor="start" transform="translate(18,11)" font-family="sans-serif" font-size="14px" fill="#000" opacity="1">Uomini</text></g></g><path class="foreground" aria-hidden="true" d="" pointer-events="none" display="none"/></g></g></g><path class="foreground" aria-hidden="true" d="" pointer-events="none" display="none"/></g></g><g class="mark-text role-legend-title" pointer-events="none"><text text-anchor="start" transform="translate(0,16)" font-family="sans-serif" font-size="20px" font-weight="bold" fill="#000" opacity="1">Sesso</text></g></g><path class="foreground" aria-hidden="true" d="" pointer-events="none" display="none"/></g></g></g><path class="foreground" aria-hidden="true" d="" display="none"/></g></g></g></svg>