<?xml version="1.0" encoding="utf-8"?>
<!-- Generator: Adobe Illustrator 27.7.0, SVG Export Plug-In . SVG Version: 6.00 Build 0)  -->
<svg version="1.1" id="Livello_1" xmlns="http://www.w3.org/2000/svg" xmlns:xlink="http://www.w3.org/1999/xlink" x="0px" y="0px"
	 viewBox="0 0 1020 427" style="enable-background:new 0 0 1020 427;" xml:space="preserve">
<style type="text/css">
	.st0{fill:#FFFFFF;}
	.st1{fill:none;}
	.st2{fill:#4C78A8;}
	.st3{fill:#F58518;}
	.st4{fill:#E45756;}
	.st5{fill:#72B7B2;}
	.st6{font-family:'Helvetica';}
	.st7{font-size:10px;}
	.st8{display:none;}
	.st9{font-family:'Helvetica-Bold';}
	.st10{font-size:11px;}
	.st11{font-size:13px;}
	.st12{font-family:'MyriadPro-Regular';}
	.st13{font-size:18px;}
</style>
<rect class="st0" width="1020" height="427"/>
<g transform="translate(5,22)">
	<g>
		<g transform="translate(0,0)">
			<path class="st1" d="M0,0h900v400H0V0z"/>
			<g>
				<g>
					<path class="st2" d="M500.7,44.7C480.8,37,459.7,33,438.3,33v129.6c5.3,0,10.6,1,15.6,2.9L500.7,44.7z"/>
					<path class="st3" d="M592.9,128.7c-19.2-38.5-52.1-68.5-92.2-84.1l-46.8,120.8c10,3.9,18.3,11.4,23.1,21L592.9,128.7z"/>
					<path class="st4" d="M470.1,375.5C563.8,358,625.6,267.8,608.1,174c-2.9-15.7-8-30.9-15.2-45.3l-116,57.7
						c10.6,21.4,1.9,47.3-19.4,57.9c-3.6,1.8-7.4,3.1-11.3,3.8L470.1,375.5z"/>
					<path class="st5" d="M438.3,33c-95.4,0-172.7,77.3-172.7,172.7c0,95.4,77.3,172.7,172.7,172.7c10.6,0,21.3-1,31.7-2.9
						l-23.8-127.4c-23.4,4.4-46-11.1-50.4-34.5c-4.4-23.4,11.1-46,34.5-50.4c2.6-0.5,5.3-0.7,7.9-0.7V33z"/>
				</g>
				<g>
					<g transform="translate(918,0)">
						<path pointer-events="none" class="st1" d="M0,0h92v66H0V0z"/>
						<g>
							<g>
								<g transform="translate(0,16)">
									<path pointer-events="none" class="st1" d="M0,0L0,0L0,0L0,0z"/>
									<g>
										<g>
											<g transform="translate(0,0)">
												<path pointer-events="none" class="st1" d="M0,0h91.1v11H0V0z"/>
												<g>
													<g pointer-events="none">
														<path class="st2" d="M11,6c0,2.8-2.2,5-5,5S1,8.8,1,6s2.2-5,5-5S11,3.2,11,6"/>
													</g>
													<g pointer-events="none">
														<text transform="matrix(1 0 0 1 16 9)" class="st6 st7">Dai 15 ai 19 anni</text>
													</g>
												</g>
												<path pointer-events="none" class="st8" d="M0,0"/>
											</g>
											<g transform="translate(0,13)">
												<path pointer-events="none" class="st1" d="M0,0h91.1v11H0V0z"/>
												<g>
													<g pointer-events="none">
														<path class="st3" d="M11,6c0,2.8-2.2,5-5,5S1,8.8,1,6s2.2-5,5-5S11,3.2,11,6"/>
													</g>
													<g pointer-events="none">
														<text transform="matrix(1 0 0 1 16 9)" class="st6 st7">Dai 20 ai 24 anni</text>
													</g>
												</g>
												<path pointer-events="none" class="st8" d="M0,0"/>
											</g>
											<g transform="translate(0,26)">
												<path pointer-events="none" class="st1" d="M0,0h91.1v11H0V0z"/>
												<g>
													<g pointer-events="none">
														<path class="st4" d="M11,6c0,2.8-2.2,5-5,5S1,8.8,1,6s2.2-5,5-5S11,3.2,11,6"/>
													</g>
													<g pointer-events="none">
														<text transform="matrix(1 0 0 1 16 9)" class="st6 st7">Dai 25 ai 29 anni</text>
													</g>
												</g>
												<path pointer-events="none" class="st8" d="M0,0"/>
											</g>
											<g transform="translate(0,39)">
												<path pointer-events="none" class="st1" d="M0,0h91.1v11H0V0z"/>
												<g>
													<g pointer-events="none">
														<path class="st5" d="M11,6c0,2.8-2.2,5-5,5S1,8.8,1,6s2.2-5,5-5S11,3.2,11,6"/>
													</g>
													<g pointer-events="none">
														<text transform="matrix(1 0 0 1 16 9)" class="st6 st7">Dai 30 ai 34 anni</text>
													</g>
												</g>
												<path pointer-events="none" class="st8" d="M0,0"/>
											</g>
										</g>
									</g>
									<path pointer-events="none" class="st8" d="M0,0"/>
								</g>
							</g>
							<g pointer-events="none">
								<text transform="matrix(1 0 0 1 0 9)" class="st9 st10">Età</text>
							</g>
						</g>
						<path pointer-events="none" class="st8" d="M0,0"/>
					</g>
				</g>
				<g>
					<g transform="translate(450,-17)">
						<path pointer-events="none" class="st1" d="M0,0L0,0L0,0L0,0z"/>
						<g>
							<g pointer-events="none">
								<text transform="matrix(1 0 0 1 -281.3789 10)" class="st9 st11">Andamento morti tra i giovani per abuso di droghe in Spagna dal 2015 al 2022 - fasce di età</text>
							</g>
						</g>
						<path pointer-events="none" class="st8" d="M0,0"/>
					</g>
				</g>
			</g>
			<path class="st8" d="M0,0"/>
		</g>
	</g>
</g>
<rect x="483.5" y="34" class="st1" width="53" height="42"/>
<text transform="matrix(1 0 0 1 483.5 46.7798)" class="st12 st13">1</text>
<rect x="583.5" y="86.2" class="st1" width="53" height="42"/>
<text transform="matrix(1 0 0 1 583.5 98.9702)" class="st12 st13">2</text>
<rect x="624.5" y="274.1" class="st1" width="53" height="42"/>
<text transform="matrix(1 0 0 1 624.5 286.9255)" class="st12 st13">4</text>
<rect x="235.5" y="222" class="st1" width="53" height="42"/>
<text transform="matrix(1 0 0 1 235.5 234.7798)" class="st12 st13">9</text>
</svg>
