<svg id="Livello_1" data-name="Livello 1" xmlns="http://www.w3.org/2000/svg" viewBox="0 0 551 380"><defs><style>.cls-1{fill:#fff;}.cls-2,.cls-3,.cls-5{fill:none;}.cls-3{stroke:#888;}.cls-3,.cls-5{stroke-miterlimit:10;}.cls-4,.cls-6{isolation:isolate;}.cls-4{font-size:10px;font-family:ArialMT, Arial;}.cls-5{stroke:#3d9ad5;stroke-width:2px;}.cls-6{font-size:18px;font-family:Arial-BoldMT, Arial;font-weight:700;}.cls-7{font-size:12px;font-family:Montserrat-Regular, Montserrat;}.cls-8{letter-spacing:-0.01em;}.cls-9{letter-spacing:-0.02em;}.cls-10{letter-spacing:-0.02em;}.cls-11{letter-spacing:0.01em;}.cls-12{letter-spacing:-0.02em;}</style></defs><rect class="cls-1" width="551" height="380"/><path class="cls-2" d="M38,58H538V358H38Z"/><path class="cls-2" d="M38.5,358.5Z"/><line class="cls-3" x1="80.5" y1="358.5" x2="80.5" y2="363.5"/><line class="cls-3" x1="163.5" y1="358.5" x2="163.5" y2="363.5"/><line class="cls-3" x1="246.5" y1="358.5" x2="246.5" y2="363.5"/><line class="cls-3" x1="330.5" y1="358.5" x2="330.5" y2="363.5"/><line class="cls-3" x1="413.5" y1="358.5" x2="413.5" y2="363.5"/><line class="cls-3" x1="496.5" y1="358.5" x2="496.5" y2="363.5"/><text class="cls-4" transform="translate(69.04 373.5)">2015</text><text class="cls-4" transform="translate(152.38 373.5)">2016</text><text class="cls-4" transform="translate(235.71 373.5)">2017</text><text class="cls-4" transform="translate(319.04 373.5)">2018</text><text class="cls-4" transform="translate(402.38 373.5)">2019</text><text class="cls-4" transform="translate(485.71 373.5)">2020</text><line class="cls-3" x1="38.5" y1="358.5" x2="538.5" y2="358.5"/><path class="cls-2" d="M38.5,58.5Z"/><line class="cls-3" x1="38.5" y1="358.5" x2="33.5" y2="358.5"/><line class="cls-3" x1="38.5" y1="328.5" x2="33.5" y2="328.5"/><line class="cls-3" x1="38.5" y1="298.5" x2="33.5" y2="298.5"/><line class="cls-3" x1="38.5" y1="268.5" x2="33.5" y2="268.5"/><line class="cls-3" x1="38.5" y1="238.5" x2="33.5" y2="238.5"/><line class="cls-3" x1="38.5" y1="208.5" x2="33.5" y2="208.5"/><line class="cls-3" x1="38.5" y1="178.5" x2="33.5" y2="178.5"/><line class="cls-3" x1="38.5" y1="148.5" x2="33.5" y2="148.5"/><line class="cls-3" x1="38.5" y1="118.5" x2="33.5" y2="118.5"/><line class="cls-3" x1="38.5" y1="88.5" x2="33.5" y2="88.5"/><line class="cls-3" x1="38.5" y1="58.5" x2="33.5" y2="58.5"/><text class="cls-4" transform="translate(25.94 361.5)">0</text><text class="cls-4" transform="translate(14.82 331.5)">100</text><text class="cls-4" transform="translate(14.82 301.5)">200</text><text class="cls-4" transform="translate(14.82 271.5)">300</text><text class="cls-4" transform="translate(14.82 241.5)">400</text><text class="cls-4" transform="translate(14.82 211.5)">500</text><text class="cls-4" transform="translate(14.82 181.5)">600</text><text class="cls-4" transform="translate(14.82 151.5)">700</text><text class="cls-4" transform="translate(14.82 121.5)">800</text><text class="cls-4" transform="translate(14.82 91.5)">900</text><text class="cls-4" transform="translate(6.48 61.5)">1,000</text><line class="cls-3" x1="38.5" y1="358.5" x2="38.5" y2="58.5"/><path class="cls-5" d="M79.67,78.1,163,80.5l83.33,12,83.34,11.7L413,111.1l83.33,71.1"/><path class="cls-2" d="M288,5Z"/><text class="cls-6" transform="translate(30.95 19)">Numero di morti causate da accidenti di trasporto negli anni</text><path d="M517.53,208.1a2.11,2.11,0,0,0-.19-.23l-10.16-10.16a1.6,1.6,0,0,1,0-2.25l-3.64-3.63c-.21.16-.47.36-.74.54a14.47,14.47,0,0,1-6.65,2.55,15,15,0,0,1-16.86-13c0-.27-.07-.55-.1-.82v-2.16c.06-.47.11-.95.19-1.42A15,15,0,0,1,493.91,165a15.38,15.38,0,0,1,4.68.64,15,15,0,0,1,10.46,12.06,15,15,0,0,1-1.71,9.64c-.45.78-1,1.52-1.47,2.28l3.52,3.52a5.7,5.7,0,0,1,.95-.38,1.52,1.52,0,0,1,1.44.52q4.62,4.62,9.25,9.25l1.1,1.1a.5.5,0,0,1,0,.73c-1.2,1.19-2.39,2.39-3.59,3.59a1.24,1.24,0,0,0-.14.18ZM507.66,180a13.37,13.37,0,1,0-12.86,13.3A13.33,13.33,0,0,0,507.66,180Z"/><text class="cls-7" transform="translate(478.55 229.12)"><tspan class="cls-8">C</tspan><tspan class="cls-9" x="8.45" y="0">O</tspan><tspan class="cls-10" x="18.26" y="0">V</tspan><tspan x="26.46" y="0">I</tspan><tspan class="cls-11" x="30.08" y="0">D</tspan><tspan class="cls-12" x="40.09" y="0">-</tspan><tspan x="44.47" y="0">19</tspan></text></svg>