<svg xmlns="http://www.w3.org/2000/svg" xmlns:xlink="http://www.w3.org/1999/xlink" version="1.1" class="marks" width="1066" height="472" viewBox="0 0 1066 472"><rect width="1066" height="472" fill="white"/><g fill="none" stroke-miterlimit="10" transform="translate(51,31)"><g class="mark-group role-frame root" role="graphics-object" aria-roledescription="group mark container"><g transform="translate(0,0)"><path class="background" aria-hidden="true" d="M0,0h900v400h-900Z" stroke="#ddd" stroke-width="0"/><g><g class="mark-group role-axis" role="graphics-symbol" aria-roledescription="axis" aria-label="X-axis titled 'Anno' for a discrete scale with 8 values: 2015, 2016, 2017, 2018, 2019, ending with 2022"><g transform="translate(0.5,400.5)"><path class="background" aria-hidden="true" d="M0,0h0v0h0Z" pointer-events="none"/><g><g class="mark-rule role-axis-tick" pointer-events="none"><line transform="translate(56,0)" x2="0" y2="5" stroke="#888" stroke-width="1" opacity="1"/><line transform="translate(169,0)" x2="0" y2="5" stroke="#888" stroke-width="1" opacity="1"/><line transform="translate(281,0)" x2="0" y2="5" stroke="#888" stroke-width="1" opacity="1"/><line transform="translate(394,0)" x2="0" y2="5" stroke="#888" stroke-width="1" opacity="1"/><line transform="translate(506,0)" x2="0" y2="5" stroke="#888" stroke-width="1" opacity="1"/><line transform="translate(619,0)" x2="0" y2="5" stroke="#888" stroke-width="1" opacity="1"/><line transform="translate(731,0)" x2="0" y2="5" stroke="#888" stroke-width="1" opacity="1"/><line transform="translate(844,0)" x2="0" y2="5" stroke="#888" stroke-width="1" opacity="1"/></g><g class="mark-text role-axis-label" pointer-events="none"><text text-anchor="middle" transform="translate(56.25,16)" font-family="sans-serif" font-size="12px" fill="#000" opacity="1">2015</text><text text-anchor="middle" transform="translate(168.75,16)" font-family="sans-serif" font-size="12px" fill="#000" opacity="1">2016</text><text text-anchor="middle" transform="translate(281.25,16)" font-family="sans-serif" font-size="12px" fill="#000" opacity="1">2017</text><text text-anchor="middle" transform="translate(393.75,16)" font-family="sans-serif" font-size="12px" fill="#000" opacity="1">2018</text><text text-anchor="middle" transform="translate(506.25,16)" font-family="sans-serif" font-size="12px" fill="#000" opacity="1">2019</text><text text-anchor="middle" transform="translate(618.75,16)" font-family="sans-serif" font-size="12px" fill="#000" opacity="1">2020</text><text text-anchor="middle" transform="translate(731.25,16)" font-family="sans-serif" font-size="12px" fill="#000" opacity="1">2021</text><text text-anchor="middle" transform="translate(843.75,16)" font-family="sans-serif" font-size="12px" fill="#000" opacity="1">2022</text></g><g class="mark-rule role-axis-domain" pointer-events="none"><line transform="translate(0,0)" x2="900" y2="0" stroke="#888" stroke-width="1" opacity="1"/></g><g class="mark-text role-axis-title" pointer-events="none"><text text-anchor="middle" transform="translate(450,33)" font-family="sans-serif" font-size="14px" font-weight="bold" fill="#000" opacity="1">Anno</text></g></g><path class="foreground" aria-hidden="true" d="" pointer-events="none" display="none"/></g></g><g class="mark-group role-axis" role="graphics-symbol" aria-roledescription="axis" aria-label="Y-axis titled 'Numero decessi' for a linear scale with values from 0 to 400"><g transform="translate(0.5,0.5)"><path class="background" aria-hidden="true" d="M0,0h0v0h0Z" pointer-events="none"/><g><g class="mark-rule role-axis-tick" pointer-events="none"><line transform="translate(0,400)" x2="-5" y2="0" stroke="#888" stroke-width="1" opacity="1"/><line transform="translate(0,350)" x2="-5" y2="0" stroke="#888" stroke-width="1" opacity="1"/><line transform="translate(0,300)" x2="-5" y2="0" stroke="#888" stroke-width="1" opacity="1"/><line transform="translate(0,250)" x2="-5" y2="0" stroke="#888" stroke-width="1" opacity="1"/><line transform="translate(0,200)" x2="-5" y2="0" stroke="#888" stroke-width="1" opacity="1"/><line transform="translate(0,150)" x2="-5" y2="0" stroke="#888" stroke-width="1" opacity="1"/><line transform="translate(0,100)" x2="-5" y2="0" stroke="#888" stroke-width="1" opacity="1"/><line transform="translate(0,50)" x2="-5" y2="0" stroke="#888" stroke-width="1" opacity="1"/><line transform="translate(0,0)" x2="-5" y2="0" stroke="#888" stroke-width="1" opacity="1"/></g><g class="mark-text role-axis-label" pointer-events="none"><text text-anchor="end" transform="translate(-7,404)" font-family="sans-serif" font-size="12px" fill="#000" opacity="1">0</text><text text-anchor="end" transform="translate(-7,354)" font-family="sans-serif" font-size="12px" fill="#000" opacity="1">50</text><text text-anchor="end" transform="translate(-7,304)" font-family="sans-serif" font-size="12px" fill="#000" opacity="1">100</text><text text-anchor="end" transform="translate(-7,254)" font-family="sans-serif" font-size="12px" fill="#000" opacity="1">150</text><text text-anchor="end" transform="translate(-7,204)" font-family="sans-serif" font-size="12px" fill="#000" opacity="1">200</text><text text-anchor="end" transform="translate(-7,154)" font-family="sans-serif" font-size="12px" fill="#000" opacity="1">250</text><text text-anchor="end" transform="translate(-7,104)" font-family="sans-serif" font-size="12px" fill="#000" opacity="1">300</text><text text-anchor="end" transform="translate(-7,54)" font-family="sans-serif" font-size="12px" fill="#000" opacity="1">350</text><text text-anchor="end" transform="translate(-7,4)" font-family="sans-serif" font-size="12px" fill="#000" opacity="1">400</text></g><g class="mark-rule role-axis-domain" pointer-events="none"><line transform="translate(0,400)" x2="0" y2="-400" stroke="#888" stroke-width="1" opacity="1"/></g><g class="mark-text role-axis-title" pointer-events="none"><text text-anchor="middle" transform="translate(-31.021484375,200) rotate(-90) translate(0,-3)" font-family="sans-serif" font-size="14px" font-weight="bold" fill="#000" opacity="1">Numero decessi</text></g></g><path class="foreground" aria-hidden="true" d="" pointer-events="none" display="none"/></g></g><g class="mark-group role-scope layer_0_pathgroup" role="graphics-object" aria-roledescription="group mark container"><g transform="translate(0,0)"><path class="background" aria-hidden="true" d="M0,0h900v400h-900Z"/><g><g class="mark-line role-mark layer_0_marks" role="graphics-object" aria-roledescription="line mark container"><path aria-label="Anno: 2015; Numero decessi: 127; Edad: Dai 20 ai 24 anni" role="graphics-symbol" aria-roledescription="line mark" d="M56.25,273L168.75,264L281.25,264L393.75,266L506.25,290L618.75,306L731.25,266L843.75,17" stroke="#4c78a8" stroke-width="2"/></g></g><path class="foreground" aria-hidden="true" d="" display="none"/></g><g transform="translate(0,0)"><path class="background" aria-hidden="true" d="M0,0h900v400h-900Z"/><g><g class="mark-line role-mark layer_0_marks" role="graphics-object" aria-roledescription="line mark container"><path aria-label="Anno: 2015; Numero decessi: 135; Edad: Dai 25 ai 29 anni" role="graphics-symbol" aria-roledescription="line mark" d="M56.25,265L168.75,286L281.25,252L393.75,273L506.25,271L618.75,309L731.25,311L843.75,3" stroke="#f58518" stroke-width="2"/></g></g><path class="foreground" aria-hidden="true" d="" display="none"/></g><g transform="translate(0,0)"><path class="background" aria-hidden="true" d="M0,0h900v400h-900Z"/><g><g class="mark-line role-mark layer_0_marks" role="graphics-object" aria-roledescription="line mark container"><path aria-label="Anno: 2015; Numero decessi: 115; Edad: Dai 30 ai 34 anni" role="graphics-symbol" aria-roledescription="line mark" d="M56.25,285L168.75,289L281.25,263L393.75,273L506.25,296L618.75,297L731.25,294L843.75,122" stroke="#e45756" stroke-width="2"/></g></g><path class="foreground" aria-hidden="true" d="" display="none"/></g></g><g class="mark-symbol role-mark layer_1_marks" role="graphics-object" aria-roledescription="symbol mark container"><path aria-label="Anno: 2022; Numero decessi: 383; Edad: Dai 20 ai 24 anni" role="graphics-symbol" aria-roledescription="point" transform="translate(843.75,16.999999999999993)" d="M2.739,0A2.739,2.739,0,1,1,-2.739,0A2.739,2.739,0,1,1,2.739,0" fill="#4c78a8" stroke-width="2" opacity="1"/><path aria-label="Anno: 2021; Numero decessi: 134; Edad: Dai 20 ai 24 anni" role="graphics-symbol" aria-roledescription="point" transform="translate(731.25,266)" d="M2.739,0A2.739,2.739,0,1,1,-2.739,0A2.739,2.739,0,1,1,2.739,0" fill="#4c78a8" stroke-width="2" opacity="1"/><path aria-label="Anno: 2020; Numero decessi: 94; Edad: Dai 20 ai 24 anni" role="graphics-symbol" aria-roledescription="point" transform="translate(618.75,306)" d="M2.739,0A2.739,2.739,0,1,1,-2.739,0A2.739,2.739,0,1,1,2.739,0" fill="#4c78a8" stroke-width="2" opacity="1"/><path aria-label="Anno: 2019; Numero decessi: 110; Edad: Dai 20 ai 24 anni" role="graphics-symbol" aria-roledescription="point" transform="translate(506.25,290)" d="M2.739,0A2.739,2.739,0,1,1,-2.739,0A2.739,2.739,0,1,1,2.739,0" fill="#4c78a8" stroke-width="2" opacity="1"/><path aria-label="Anno: 2018; Numero decessi: 134; Edad: Dai 20 ai 24 anni" role="graphics-symbol" aria-roledescription="point" transform="translate(393.75,266)" d="M2.739,0A2.739,2.739,0,1,1,-2.739,0A2.739,2.739,0,1,1,2.739,0" fill="#4c78a8" stroke-width="2" opacity="1"/><path aria-label="Anno: 2017; Numero decessi: 136; Edad: Dai 20 ai 24 anni" role="graphics-symbol" aria-roledescription="point" transform="translate(281.25,263.99999999999994)" d="M2.739,0A2.739,2.739,0,1,1,-2.739,0A2.739,2.739,0,1,1,2.739,0" fill="#4c78a8" stroke-width="2" opacity="1"/><path aria-label="Anno: 2016; Numero decessi: 136; Edad: Dai 20 ai 24 anni" role="graphics-symbol" aria-roledescription="point" transform="translate(168.75,263.99999999999994)" d="M2.739,0A2.739,2.739,0,1,1,-2.739,0A2.739,2.739,0,1,1,2.739,0" fill="#4c78a8" stroke-width="2" opacity="1"/><path aria-label="Anno: 2015; Numero decessi: 127; Edad: Dai 20 ai 24 anni" role="graphics-symbol" aria-roledescription="point" transform="translate(56.25,273)" d="M2.739,0A2.739,2.739,0,1,1,-2.739,0A2.739,2.739,0,1,1,2.739,0" fill="#4c78a8" stroke-width="2" opacity="1"/><path aria-label="Anno: 2022; Numero decessi: 397; Edad: Dai 25 ai 29 anni" role="graphics-symbol" aria-roledescription="point" transform="translate(843.75,2.9999999999999805)" d="M2.739,0A2.739,2.739,0,1,1,-2.739,0A2.739,2.739,0,1,1,2.739,0" fill="#f58518" stroke-width="2" opacity="1"/><path aria-label="Anno: 2021; Numero decessi: 89; Edad: Dai 25 ai 29 anni" role="graphics-symbol" aria-roledescription="point" transform="translate(731.25,311)" d="M2.739,0A2.739,2.739,0,1,1,-2.739,0A2.739,2.739,0,1,1,2.739,0" fill="#f58518" stroke-width="2" opacity="1"/><path aria-label="Anno: 2020; Numero decessi: 91; Edad: Dai 25 ai 29 anni" role="graphics-symbol" aria-roledescription="point" transform="translate(618.75,309)" d="M2.739,0A2.739,2.739,0,1,1,-2.739,0A2.739,2.739,0,1,1,2.739,0" fill="#f58518" stroke-width="2" opacity="1"/><path aria-label="Anno: 2019; Numero decessi: 129; Edad: Dai 25 ai 29 anni" role="graphics-symbol" aria-roledescription="point" transform="translate(506.25,271)" d="M2.739,0A2.739,2.739,0,1,1,-2.739,0A2.739,2.739,0,1,1,2.739,0" fill="#f58518" stroke-width="2" opacity="1"/><path aria-label="Anno: 2018; Numero decessi: 127; Edad: Dai 25 ai 29 anni" role="graphics-symbol" aria-roledescription="point" transform="translate(393.75,273)" d="M2.739,0A2.739,2.739,0,1,1,-2.739,0A2.739,2.739,0,1,1,2.739,0" fill="#f58518" stroke-width="2" opacity="1"/><path aria-label="Anno: 2017; Numero decessi: 148; Edad: Dai 25 ai 29 anni" role="graphics-symbol" aria-roledescription="point" transform="translate(281.25,252)" d="M2.739,0A2.739,2.739,0,1,1,-2.739,0A2.739,2.739,0,1,1,2.739,0" fill="#f58518" stroke-width="2" opacity="1"/><path aria-label="Anno: 2016; Numero decessi: 114; Edad: Dai 25 ai 29 anni" role="graphics-symbol" aria-roledescription="point" transform="translate(168.75,286.00000000000006)" d="M2.739,0A2.739,2.739,0,1,1,-2.739,0A2.739,2.739,0,1,1,2.739,0" fill="#f58518" stroke-width="2" opacity="1"/><path aria-label="Anno: 2015; Numero decessi: 135; Edad: Dai 25 ai 29 anni" role="graphics-symbol" aria-roledescription="point" transform="translate(56.25,265)" d="M2.739,0A2.739,2.739,0,1,1,-2.739,0A2.739,2.739,0,1,1,2.739,0" fill="#f58518" stroke-width="2" opacity="1"/><path aria-label="Anno: 2022; Numero decessi: 278; Edad: Dai 30 ai 34 anni" role="graphics-symbol" aria-roledescription="point" transform="translate(843.75,122.00000000000001)" d="M2.739,0A2.739,2.739,0,1,1,-2.739,0A2.739,2.739,0,1,1,2.739,0" fill="#e45756" stroke-width="2" opacity="1"/><path aria-label="Anno: 2021; Numero decessi: 106; Edad: Dai 30 ai 34 anni" role="graphics-symbol" aria-roledescription="point" transform="translate(731.25,294)" d="M2.739,0A2.739,2.739,0,1,1,-2.739,0A2.739,2.739,0,1,1,2.739,0" fill="#e45756" stroke-width="2" opacity="1"/><path aria-label="Anno: 2020; Numero decessi: 103; Edad: Dai 30 ai 34 anni" role="graphics-symbol" aria-roledescription="point" transform="translate(618.75,297)" d="M2.739,0A2.739,2.739,0,1,1,-2.739,0A2.739,2.739,0,1,1,2.739,0" fill="#e45756" stroke-width="2" opacity="1"/><path aria-label="Anno: 2019; Numero decessi: 104; Edad: Dai 30 ai 34 anni" role="graphics-symbol" aria-roledescription="point" transform="translate(506.25,296)" d="M2.739,0A2.739,2.739,0,1,1,-2.739,0A2.739,2.739,0,1,1,2.739,0" fill="#e45756" stroke-width="2" opacity="1"/><path aria-label="Anno: 2018; Numero decessi: 127; Edad: Dai 30 ai 34 anni" role="graphics-symbol" aria-roledescription="point" transform="translate(393.75,273)" d="M2.739,0A2.739,2.739,0,1,1,-2.739,0A2.739,2.739,0,1,1,2.739,0" fill="#e45756" stroke-width="2" opacity="1"/><path aria-label="Anno: 2017; Numero decessi: 137; Edad: Dai 30 ai 34 anni" role="graphics-symbol" aria-roledescription="point" transform="translate(281.25,263)" d="M2.739,0A2.739,2.739,0,1,1,-2.739,0A2.739,2.739,0,1,1,2.739,0" fill="#e45756" stroke-width="2" opacity="1"/><path aria-label="Anno: 2016; Numero decessi: 111; Edad: Dai 30 ai 34 anni" role="graphics-symbol" aria-roledescription="point" transform="translate(168.75,288.99999999999994)" d="M2.739,0A2.739,2.739,0,1,1,-2.739,0A2.739,2.739,0,1,1,2.739,0" fill="#e45756" stroke-width="2" opacity="1"/><path aria-label="Anno: 2015; Numero decessi: 115; Edad: Dai 30 ai 34 anni" role="graphics-symbol" aria-roledescription="point" transform="translate(56.25,285)" d="M2.739,0A2.739,2.739,0,1,1,-2.739,0A2.739,2.739,0,1,1,2.739,0" fill="#e45756" stroke-width="2" opacity="1"/></g><g class="mark-group role-legend" role="graphics-symbol" aria-roledescription="legend" aria-label="Symbol legend titled 'Età' for fill color and stroke color with 3 values: Dai 20 ai 24 anni, Dai 25 ai 29 anni, Dai 30 ai 34 anni"><g transform="translate(918,0)"><path class="background" aria-hidden="true" d="M0,0h92v61h-92Z" pointer-events="none"/><g><g class="mark-group role-legend-entry"><g transform="translate(0,16)"><path class="background" aria-hidden="true" d="M0,0h0v0h0Z" pointer-events="none"/><g><g class="mark-group role-scope" role="graphics-object" aria-roledescription="group mark container"><g transform="translate(0,0)"><path class="background" aria-hidden="true" d="M0,0h91.0537109375v12.5h-91.0537109375Z" pointer-events="none" opacity="1"/><g><g class="mark-symbol role-legend-symbol" pointer-events="none"><path transform="translate(6,6)" d="M5,0A5,5,0,1,1,-5,0A5,5,0,1,1,5,0" fill="#4c78a8" stroke="#4c78a8" stroke-width="1.5" opacity="1"/></g><g class="mark-text role-legend-label" pointer-events="none"><text text-anchor="start" transform="translate(16,9)" font-family="sans-serif" font-size="10px" fill="#000" opacity="1">Dai 20 ai 24 anni</text></g></g><path class="foreground" aria-hidden="true" d="" pointer-events="none" display="none"/></g><g transform="translate(0,16)"><path class="background" aria-hidden="true" d="M0,0h91.0537109375v12.5h-91.0537109375Z" pointer-events="none" opacity="1"/><g><g class="mark-symbol role-legend-symbol" pointer-events="none"><path transform="translate(6,6)" d="M5,0A5,5,0,1,1,-5,0A5,5,0,1,1,5,0" fill="#f58518" stroke="#f58518" stroke-width="1.5" opacity="1"/></g><g class="mark-text role-legend-label" pointer-events="none"><text text-anchor="start" transform="translate(16,9)" font-family="sans-serif" font-size="10px" fill="#000" opacity="1">Dai 25 ai 29 anni</text></g></g><path class="foreground" aria-hidden="true" d="" pointer-events="none" display="none"/></g><g transform="translate(0,32)"><path class="background" aria-hidden="true" d="M0,0h91.0537109375v12.5h-91.0537109375Z" pointer-events="none" opacity="1"/><g><g class="mark-symbol role-legend-symbol" pointer-events="none"><path transform="translate(6,6)" d="M5,0A5,5,0,1,1,-5,0A5,5,0,1,1,5,0" fill="#e45756" stroke="#e45756" stroke-width="1.5" opacity="1"/></g><g class="mark-text role-legend-label" pointer-events="none"><text text-anchor="start" transform="translate(16,9)" font-family="sans-serif" font-size="10px" fill="#000" opacity="1">Dai 30 ai 34 anni</text></g></g><path class="foreground" aria-hidden="true" d="" pointer-events="none" display="none"/></g></g></g><path class="foreground" aria-hidden="true" d="" pointer-events="none" display="none"/></g></g><g class="mark-text role-legend-title" pointer-events="none"><text text-anchor="start" transform="translate(0,9)" font-family="sans-serif" font-size="11px" font-weight="bold" fill="#000" opacity="1">Età</text></g></g><path class="foreground" aria-hidden="true" d="" pointer-events="none" display="none"/></g></g><g class="mark-group role-title"><g transform="translate(450,-26)"><path class="background" aria-hidden="true" d="M0,0h0v0h0Z" pointer-events="none"/><g><g class="mark-text role-title-text" role="graphics-symbol" aria-roledescription="title" aria-label="Title text 'Andamento morti tra i giovani per incidenti stradali in Spagna dal 2015 al 2022 - fasce di età'" pointer-events="none"><text text-anchor="middle" transform="translate(0,13)" font-family="sans-serif" font-size="16px" font-weight="bold" fill="#000" opacity="1">Andamento morti tra i giovani per incidenti stradali in Spagna dal 2015 al 2022 - fasce di età</text></g></g><path class="foreground" aria-hidden="true" d="" pointer-events="none" display="none"/></g></g></g><path class="foreground" aria-hidden="true" d="" display="none"/></g></g></g></svg>