<svg id="Livello_1" data-name="Livello 1" xmlns="http://www.w3.org/2000/svg" viewBox="0 0 903.56 124.5"><defs><style>.cls-1,.cls-8{fill:#fff;}.cls-2{font-size:14px;}.cls-2,.cls-8{font-family:Montserrat-Regular, Montserrat;}.cls-3{letter-spacing:-0.01em;}.cls-4{letter-spacing:-0.01em;}.cls-5{letter-spacing:-0.06em;}.cls-6{letter-spacing:-0.03em;}.cls-7{fill:#1c6893;}.cls-8{font-size:11.4px;}.cls-9{letter-spacing:-0.04em;}.cls-10{letter-spacing:0em;}.cls-11{letter-spacing:-0.07em;}.cls-12{letter-spacing:-0.04em;}</style></defs><path d="M134.64,99.86H119.4c-2.09,0-2.81-.72-2.81-2.8V46c0-2.11.68-2.8,2.79-2.8q15.33,0,30.68,0a3.11,3.11,0,0,1,2.44,1c1.72,1.78,3.5,3.5,5.23,5.27A1.6,1.6,0,0,0,159,50c3.08,0,6.17,0,9.26,0a2.91,2.91,0,0,1,2.24.92q4.29,4.32,8.61,8.61a2.83,2.83,0,0,1,.9,2.17q0,21.15,0,42.31c0,1.89-.75,2.63-2.65,2.63h-40c-1.87,0-2.63-.77-2.64-2.67v-3.82S134.67,100,134.64,99.86Zm4.63,2.23.69,0q17.37,0,34.74,0c.65,0,.8-.2.8-.83q0-17.32,0-34.66c0-.24,0-.49,0-.77H167c-2.18,0-2.86-.7-2.87-2.9V54.6H139.27Zm-4.61-9h-8.51c-2.05,0-2.78-.72-2.78-2.75V64c0-2,.77-2.71,2.75-2.72h8.57V52.79c0-2.06.75-2.79,2.83-2.79h14.19a13.38,13.38,0,0,0-1.54-1.76,1.57,1.57,0,0,0-1.27-.52q-13.43,0-26.86,0c-.71,0-1,.15-1,.91q0,22.92,0,45.84c0,.27,0,.54,0,.78h13.52Zm34.05-31.79h5.52l-5.52-5.49ZM128,65.91v2.16h6.65V65.91Zm6.68,6.79H128v2.17h6.7Zm0,15.79V86.3H128v2.19Zm0-9H128v2.14h6.68Z" transform="translate(-63.83 -43.21)"/><path class="cls-1" d="M139.27,102.09V54.6h24.89V63c0,2.2.69,2.89,2.87,2.9h8.42c0,.28,0,.53,0,.77q0,17.32,0,34.66c0,.63-.15.83-.8.83q-17.37,0-34.74,0Zm2.24-18.15V97.1c0,2,.74,2.76,2.78,2.76h26.16c2,0,2.77-.76,2.77-2.78q0-13.08,0-26.17c0-2-.72-2.77-2.75-2.77H144.22c-2,0-2.71.71-2.71,2.72Z" transform="translate(-63.83 -43.21)"/><path class="cls-1" d="M134.66,93v2.2H121.14c0-.24,0-.51,0-.78q0-22.92,0-45.84c0-.76.24-.91,1-.91q13.42,0,26.86,0a1.57,1.57,0,0,1,1.27.52A13.38,13.38,0,0,1,151.71,50H137.52c-2.08,0-2.82.73-2.83,2.79v8.53h-8.57c-2,0-2.75.77-2.75,2.72V90.29c0,2,.73,2.74,2.78,2.75h8.51Z" transform="translate(-63.83 -43.21)"/><path class="cls-1" d="M168.71,61.25V55.76l5.52,5.49Z" transform="translate(-63.83 -43.21)"/><path class="cls-1" d="M128,65.91h6.65v2.16H128Z" transform="translate(-63.83 -43.21)"/><path class="cls-1" d="M134.66,72.7v2.17H128V72.7Z" transform="translate(-63.83 -43.21)"/><path class="cls-1" d="M134.63,88.49H128V86.3h6.67Z" transform="translate(-63.83 -43.21)"/><path class="cls-1" d="M134.66,79.52v2.14H128V79.52Z" transform="translate(-63.83 -43.21)"/><path d="M141.51,83.94V70.86c0-2,.71-2.72,2.71-2.72h26.25c2,0,2.75.74,2.75,2.77q0,13.08,0,26.17c0,2-.75,2.78-2.77,2.78H144.29c-2,0-2.78-.73-2.78-2.76Zm4.56-11.26v2.21h4.44V72.68Zm4.45,15.82V86.3h-4.44v2.2Zm4.62-15.81v2.19h4.42V72.69Zm0,13.59v2.2h4.42v-2.2Zm-.06,9h4.49V93c-1.37,0-2.69,0-4,0a.6.6,0,0,0-.45.41A17.32,17.32,0,0,0,155.08,95.25Zm-9-2.17v2.17h4.45V93.08Zm22.54-18.19v-2.2h-4.39v2.2Zm-4.4,13.59h4.43V86.3h-4.43Zm4.41,6.78V93.08h-4.41v2.18ZM150.53,79.53h-4.47v2.14h4.47Zm4.6,0v2.16h4.45V79.5Zm9.11,0v2.17h4.38V79.5Z" transform="translate(-63.83 -43.21)"/><path class="cls-1" d="M146.07,72.68h4.44v2.21h-4.44Z" transform="translate(-63.83 -43.21)"/><path class="cls-1" d="M150.52,88.5h-4.44V86.3h4.44Z" transform="translate(-63.83 -43.21)"/><path class="cls-1" d="M155.14,72.69h4.42v2.19h-4.42Z" transform="translate(-63.83 -43.21)"/><path class="cls-1" d="M155.14,86.28h4.42v2.2h-4.42Z" transform="translate(-63.83 -43.21)"/><path class="cls-1" d="M155.08,95.25a17.32,17.32,0,0,1,0-1.78.6.6,0,0,1,.45-.41c1.32,0,2.64,0,4,0v2.21Z" transform="translate(-63.83 -43.21)"/><path class="cls-1" d="M146.07,93.08h4.45v2.17h-4.45Z" transform="translate(-63.83 -43.21)"/><path class="cls-1" d="M168.61,74.89h-4.39v-2.2h4.39Z" transform="translate(-63.83 -43.21)"/><path class="cls-1" d="M164.21,88.48V86.3h4.43v2.18Z" transform="translate(-63.83 -43.21)"/><path class="cls-1" d="M168.62,95.26h-4.41V93.08h4.41Z" transform="translate(-63.83 -43.21)"/><path class="cls-1" d="M150.53,79.53v2.14h-4.47V79.53Z" transform="translate(-63.83 -43.21)"/><path class="cls-1" d="M155.13,79.5h4.45v2.16h-4.45Z" transform="translate(-63.83 -43.21)"/><path class="cls-1" d="M164.24,79.5h4.38v2.17h-4.38Z" transform="translate(-63.83 -43.21)"/><text class="cls-2" transform="translate(27.82 99.47)">R<tspan class="cls-3" x="10.12" y="0">A</tspan><tspan class="cls-4" x="20.02" y="0">CC</tspan><tspan x="39.73" y="0">O</tspan><tspan class="cls-5" x="51.48" y="0">L</tspan><tspan class="cls-6" x="58.81" y="0">T</tspan><tspan x="66.36" y="0">A </tspan><tspan class="cls-3" x="80.07" y="0">D</tspan><tspan class="cls-6" x="91.49" y="0">A</tspan><tspan x="101.04" y="0">TI</tspan></text><circle class="cls-7" cx="12.19" cy="73.06" r="12.19"/><text class="cls-8" transform="translate(10.13 76.41)">1</text><polygon points="228.57 41.17 211 31.78 218.13 39.37 172.84 41.17 218.13 42.98 211 50.57 228.57 41.17"/><polygon points="473.22 41.17 455.65 31.78 462.79 39.37 417.5 41.17 462.79 42.98 455.65 50.57 473.22 41.17"/><polygon points="717.88 40.25 700.31 30.86 707.44 38.45 662.15 40.25 707.44 42.06 700.31 49.65 717.88 40.25"/><path d="M404.09,81.05c1.83-2.74,1.83-2.74,4.1-2q2.18-5.14,4.36-10.33c2.05-4.87,4.08-9.73,6.15-14.59,1-2.27,2-2.69,4.21-1.78s2.76,2.05,1.78,4.37q-3.12,7.45-6.29,14.88c-.31.74-.56,1.69-1.15,2.09-1.31.89-.28,2.27-1,3.33a27.91,27.91,0,0,0-2,4.55l2.44,1.3c-.85,2.07-1.7,4-2.44,6a1.8,1.8,0,0,0,.07,1.48c2.39,3,2.37,6.42,1.19,9.77a41.53,41.53,0,0,1-9,14.32,1.79,1.79,0,0,1-1.58.49c-3.08-1.21-6.11-2.54-9.15-3.84l-.67-.29,3.73-3.55-.24-.25a46.79,46.79,0,0,1-5.48,1.69,7.13,7.13,0,0,1-3.72-.32c-2.75-1.08-5.38-2.47-8.08-3.68a3.86,3.86,0,0,0-1.49-.11c-5.3,0-10.59,0-15.88,0-1.17,0-1.65-.33-1.55-1.52.16-2,.31-4,.34-6,0-1.16-.31-2.32-.31-3.49,0-9.58,0-19.15,0-28.73a3.58,3.58,0,0,1,1.17-2.8c4.3-4.23,8.51-8.54,12.83-12.74a3.67,3.67,0,0,1,2.32-1c7.88-.07,15.77,0,23.65-.07,1.44,0,1.79.51,1.78,1.87-.05,9.69,0,19.38,0,29.07ZM363.85,64.34v39c2.22-.31,4.28.11,6.39,0,3.87-.22,7.77-.06,11.65-.07a2.79,2.79,0,0,0,1.47-.17,22.51,22.51,0,0,0,7.21-8.26h-2.1c-6.19,0-12.39,0-18.58,0a4.94,4.94,0,0,1-1.55-.59,14.41,14.41,0,0,1,1.6-.74,3.39,3.39,0,0,1,1,0c6.3,0,12.61,0,18.92,0a2.25,2.25,0,0,0,1.68-.63c1.3-2.06,2.45-4.21,3.69-6.42h-24.8a5,5,0,0,1-1.34,0c-.29-.09-.5-.46-.75-.71.23-.2.44-.52.7-.58a5.52,5.52,0,0,1,1.35,0c8.62,0,17.23,0,25.85,0,2.1,0,4.2-.33,6.37-.51V49.73H378.4c0,4.29-.06,8.46,0,12.62,0,1.51-.33,2.08-2,2C372.31,64.26,368.15,64.34,363.85,64.34Zm34.44,46.39c1.93.82,4.08,1.76,6.27,2.61a1.37,1.37,0,0,0,1.25-.22c3.76-4.23,7-8.82,8.61-14.31,1.23-4.19-.05-7.53-3.47-9.23a64.8,64.8,0,0,0-8.24-3.38,5.54,5.54,0,0,0-6.75,2,38.8,38.8,0,0,0-3.26,5.48c-1.81,3.73-4,7.14-7.47,9.54a8.11,8.11,0,0,0-1.29,1.41c2.15.91,4.09,1.79,6.08,2.55a4.7,4.7,0,0,0,2.28.3,11.57,11.57,0,0,0,6.9-3.2,3.73,3.73,0,0,1,1.11-.56c.13.44.48,1,.34,1.32C400,106.94,399.13,108.75,398.29,110.73Zm11.17-31,3.47,1.43C416.51,72.62,420,64.32,423.51,56c.52-1.21.13-1.83-1-2.34s-2-.32-2.49,1c-.82,2.09-1.74,4.14-2.61,6.2C414.76,67.11,412.13,73.36,409.46,79.71ZM376.91,62.9V51L365,62.9Zm35.82,25.82,2.18-5.21-8.56-3.59L404.2,85.1Z" transform="translate(-63.83 -43.21)"/><path class="cls-1" d="M363.85,64.34c4.3,0,8.46-.08,12.62,0,1.63.05,2-.52,2-2-.09-4.16,0-8.33,0-12.62h24.22V84.42c-2.17.18-4.27.5-6.37.51-8.62.06-17.23,0-25.85,0a5.52,5.52,0,0,0-1.35,0c-.26.06-.47.38-.7.58.25.25.46.62.75.71a5,5,0,0,0,1.34,0h24.8c-1.24,2.21-2.39,4.36-3.69,6.42a2.25,2.25,0,0,1-1.68.63c-6.31.05-12.62,0-18.92,0a3.39,3.39,0,0,0-1,0,14.41,14.41,0,0,0-1.6.74,4.94,4.94,0,0,0,1.55.59c6.19,0,12.39,0,18.58,0h2.1a22.51,22.51,0,0,1-7.21,8.26,2.79,2.79,0,0,1-1.47.17c-3.88,0-7.78-.15-11.65.07-2.11.11-4.17-.31-6.39,0Zm18.8-2c0,2.14,0,4.28,0,6.41,0,1.09.35,1.46,1.46,1.45q6.48-.08,13,0c1.17,0,1.42-.47,1.41-1.5q-.06-6.42,0-12.82c0-1.14-.34-1.62-1.55-1.61-4.27,0-8.54,0-12.81,0-1.09,0-1.51.41-1.49,1.49C382.69,57.92,382.65,60.12,382.65,62.31Zm2.82,15.56c3.77,0,7.55,0,11.32,0,.54,0,1.06-.46,1.6-.71a4.55,4.55,0,0,0-1.48-.62c-7.72,0-15.44,0-23.15,0-.49,0-1,.44-1.44.67a4.32,4.32,0,0,0,1.49.65C377.69,77.89,381.58,77.87,385.47,77.87Z" transform="translate(-63.83 -43.21)"/><path class="cls-1" d="M398.29,110.73c.84-2,1.66-3.79,2.36-5.64.14-.35-.21-.88-.34-1.32a3.73,3.73,0,0,0-1.11.56,11.57,11.57,0,0,1-6.9,3.2,4.7,4.7,0,0,1-2.28-.3c-2-.76-3.93-1.64-6.08-2.55a8.11,8.11,0,0,1,1.29-1.41c3.5-2.4,5.66-5.81,7.47-9.54A38.8,38.8,0,0,1,396,88.25a5.54,5.54,0,0,1,6.75-2A64.8,64.8,0,0,1,411,89.58c3.42,1.7,4.7,5,3.47,9.23-1.61,5.49-4.85,10.08-8.61,14.31a1.37,1.37,0,0,1-1.25.22C402.37,112.49,400.22,111.55,398.29,110.73Z" transform="translate(-63.83 -43.21)"/><path class="cls-1" d="M409.46,79.71c2.67-6.35,5.3-12.6,7.92-18.86.87-2.06,1.79-4.11,2.61-6.2.51-1.29,1.24-1.52,2.49-1s1.55,1.13,1,2.34c-3.51,8.3-7,16.6-10.58,25.12Z" transform="translate(-63.83 -43.21)"/><path class="cls-1" d="M376.91,62.9H365L376.91,51Z" transform="translate(-63.83 -43.21)"/><path class="cls-1" d="M412.73,88.72,404.2,85.1l2.15-5.18,8.56,3.59Z" transform="translate(-63.83 -43.21)"/><path d="M382.65,62.31c0-2.19,0-4.39,0-6.58,0-1.08.4-1.5,1.49-1.49,4.27,0,8.54,0,12.81,0,1.21,0,1.56.47,1.55,1.61q-.06,6.4,0,12.82c0,1-.24,1.52-1.41,1.5q-6.49-.08-13,0c-1.11,0-1.49-.36-1.46-1.45C382.69,66.59,382.65,64.45,382.65,62.31ZM397,55.75H384.09V68.68H397Z" transform="translate(-63.83 -43.21)"/><path d="M385.47,77.87c-3.89,0-7.78,0-11.66,0a4.32,4.32,0,0,1-1.49-.65c.48-.23.95-.67,1.44-.67,7.71,0,15.43,0,23.15,0a4.55,4.55,0,0,1,1.48.62c-.54.25-1.06.7-1.6.71C393,77.9,389.24,77.87,385.47,77.87Z" transform="translate(-63.83 -43.21)"/><path class="cls-1" d="M397,55.75V68.68H384.09V55.75Z" transform="translate(-63.83 -43.21)"/><text class="cls-2" transform="translate(265.99 99.47)"><tspan class="cls-3">P</tspan><tspan x="9.91" y="0">RE</tspan><tspan class="cls-9" x="29.4" y="0">P</tspan><tspan x="38.82" y="0">ARAZIONE E </tspan><tspan class="cls-10" x="17.03" y="16.8">P</tspan><tspan x="27.01" y="16.8">ULIZIA </tspan><tspan class="cls-3" x="77.62" y="16.8">D</tspan><tspan class="cls-6" x="89.05" y="16.8">A</tspan><tspan x="98.59" y="16.8">TI</tspan></text><circle class="cls-7" cx="256.48" cy="73.06" r="12.19"/><text class="cls-8" transform="translate(253.24 76.41)">2</text><path d="M601.84,53.45c.92-1.67,1.8-2.17,3.14-1.78a2.38,2.38,0,0,1,1.23,3.53,3.74,3.74,0,0,0-.53,1.62q0,20.42,0,40.83c0,.24,0,.49.06.91.54,0,1.06.09,1.58.09q27.87,0,55.73,0a5.24,5.24,0,0,0,2.13-.72,2.38,2.38,0,0,1,3,.25,2.2,2.2,0,0,1,.28,3c-.72,1.08-1.77,1.11-2.92.81a12.38,12.38,0,0,0-3-.61q-28.4-.06-56.78,0c-2.74,0-2.8-.06-2.8-2.86,0-13.51,0-27,0-40.53a3.83,3.83,0,0,0-1.17-3.29Z" transform="translate(-63.83 -43.21)"/><path d="M639.72,77.9c0,5.56,0,11.12,0,16.69,0,1.9-.24,2.14-2.15,2.15-1.59,0-3.18,0-4.77,0-1.18,0-1.74-.47-1.74-1.67q0-17.35,0-34.71a1.44,1.44,0,0,1,1.63-1.65c1.74,0,3.48,0,5.22,0,1.33,0,1.84.6,1.83,1.92C639.7,66.38,639.72,72.14,639.72,77.9ZM636.93,94V61.46h-3V94Z" transform="translate(-63.83 -43.21)"/><path d="M652.28,79.83c0-5,0-9.93,0-14.89,0-1.9.36-2.25,2.26-2.25,1.54,0,3.08,0,4.62,0,1.24,0,1.83.48,1.82,1.75Q661,79.7,661,95c0,1.26-.51,1.81-1.78,1.78-1.64,0-3.28,0-4.92,0s-2-.32-2-2C652.27,89.77,652.28,84.8,652.28,79.83Zm6-14.32h-3V93.94h3Z" transform="translate(-63.83 -43.21)"/><path d="M641.74,83.46c0-3.72,0-7.45,0-11.17,0-1.81.28-2.1,2-2.11,1.59,0,3.18,0,4.77,0,1.18,0,1.72.51,1.72,1.7q0,11.63,0,23.24c0,1.22-.58,1.67-1.75,1.64-1.59,0-3.18,0-4.77,0-1.79,0-2-.2-2-2C641.73,91,641.74,87.23,641.74,83.46Zm2.78-10.52v21h3v-21Z" transform="translate(-63.83 -43.21)"/><path d="M629,86.7c0,2.73,0,5.46,0,8.19,0,1.33-.5,1.91-1.85,1.86-1.68-.06-3.37,0-5.06,0-1.27,0-1.78-.58-1.78-1.81q0-8.34,0-16.67c0-1.31.58-1.91,1.9-1.88,1.63,0,3.27,0,4.91,0,1.32,0,1.9.51,1.87,1.85C629,81.05,629,83.88,629,86.7Zm-5.87,7.24h3.06V79.2h-3.06Z" transform="translate(-63.83 -43.21)"/><path d="M609.83,89.91c0-1.73,0-3.47,0-5.2,0-1,.44-1.62,1.48-1.63,1.83,0,3.67,0,5.5,0a1.4,1.4,0,0,1,1.54,1.59c0,3.53,0,7,0,10.57,0,1-.52,1.53-1.57,1.51-1.84,0-3.67,0-5.51,0-1,0-1.44-.49-1.44-1.47C609.84,93.49,609.83,91.7,609.83,89.91Zm5.74-4h-2.94v8h2.94Z" transform="translate(-63.83 -43.21)"/><path class="cls-1" d="M636.93,94h-3V61.46h3Z" transform="translate(-63.83 -43.21)"/><path class="cls-1" d="M658.24,65.51V93.94h-3V65.51Z" transform="translate(-63.83 -43.21)"/><path class="cls-1" d="M644.52,72.94h3v21h-3Z" transform="translate(-63.83 -43.21)"/><path class="cls-1" d="M623.12,93.94V79.2h3.06V93.94Z" transform="translate(-63.83 -43.21)"/><path class="cls-1" d="M615.57,85.94v8h-2.94v-8Z" transform="translate(-63.83 -43.21)"/><text class="cls-2" transform="translate(516.03 99.47)"><tspan class="cls-3">D</tspan><tspan class="cls-6" x="11.42" y="0">AT</tspan><tspan x="28.52" y="0">A ANA</tspan><tspan class="cls-11" x="73.68" y="0">L</tspan><tspan class="cls-4" x="80.89" y="0">Y</tspan><tspan x="89.57" y="0">SIS </tspan><tspan x="-5.93" y="16.8">E </tspan><tspan class="cls-4" x="7.1" y="16.8">V</tspan><tspan x="16.67" y="16.8">IS</tspan><tspan class="cls-4" x="29.5" y="16.8">U</tspan><tspan x="40.38" y="16.8">ALIZ</tspan><tspan class="cls-6" x="72.01" y="16.8">A</tspan><tspan x="81.56" y="16.8">TION</tspan></text><circle class="cls-7" cx="503.57" cy="73.06" r="12.19"/><text class="cls-8" transform="translate(500.36 76.41)">3</text><path d="M914.53,77.82a19.7,19.7,0,0,1-7.12-8.21c-2.08-4.5-5.28-7.43-10.38-8a39.89,39.89,0,0,1-5.07-1,2.25,2.25,0,0,0-2.46.84l6.78,2.18-.15.58c-1.87-.51-3.79-.87-5.59-1.56a6.15,6.15,0,0,0-5.42.51c-1.65.9-3.34,1.73-5,2.57a2.13,2.13,0,0,0-1.38,2.59c.36,1.38,1.56.95,2.49.92,2-.07,3.45-1.46,5.15-2.25a3.55,3.55,0,0,1,3.69.07c2.2,1.29,4.45,2.42,7.19,2.2A2.48,2.48,0,0,1,900,71.54a2.42,2.42,0,0,1-1.63,3,3.7,3.7,0,0,0-1.73,1.32c-1.91,2.45-4.2,3-6.92,1.59-2.49-1.26-5-2.56-7.42-3.88-1.18-.63-2.26-.69-3,.6s0,2.31,1.09,2.89c5.14,2.76,10.27,5.55,15.52,8.09a7,7,0,0,0,6.65-.45c2.13-1.21,2.79-1,4.27,1.88C905,84,903,85.3,901.07,86.1l-.69.25c-1.1.37-2.66-.44-3.29.47-.84,1.21-.34,2.88-.36,4.36,0,4.62,0,9.24,0,13.87,0,3.37-.4,3.73-3.68,3.73-8.17,0-16.35,0-24.52,0-1.68,0-2.41.38-2.29,2.17s.06,3.8,0,5.7c-.08,2.29-1.34,3.69-3.24,3.52-2.06-.17-3-1.4-3-3.47a12.19,12.19,0,0,1,0-1.48c.58-3.85-.42-6.25-4.27-8.46-7.67-4.39-7.49-16.19-.12-21a3.89,3.89,0,0,0,2-3.81c-.08-8.84,0-17.68,0-26.51,0-3.36.56-3.91,3.84-3.91h31.72c3.08,0,3.57.51,3.64,3.58,0,.25,0,.5,0,.74.06,1.49-.27,3.14.28,4.4s2.45.9,3.71,1.42a10.81,10.81,0,0,1,5.68,4.54C908.66,70.36,911.07,74.42,914.53,77.82ZM869.6,107.71c.41.21.62.4.83.4q11.76,0,23.53,0c1.77,0,2.17-1.15,2.16-2.66,0-5.86,0-11.72,0-17.59a2.28,2.28,0,0,0-1.57-2.37C889.73,83,885,80.39,880.2,77.83c-.66-.36-1.68-.75-1.63-1.39.23-2.77-1.82-2.79-3.57-3.24-.88-.22-1.76-.43-2.62-.72-.55-.19-1.07-.53-1-1.25s.52-.79,1-.9c1.2-.28,2.39-.6,3.6-.83s2-.5,1.83-2,.93-2,2-2.59c2-1,3.85-2.44,5.94-2.93,2.28-.53,3.9-2.61,6.54-2.24,3.82.55,3.84.41,3.83-3.58v-.5c0-3-.5-3.45-3.45-3.45h-31c-3.26,0-3.47.21-3.47,3.58,0,8.26,0,16.52,0,24.77,0,3.28,0,3.28,3.24,2.74,8.2-1.36,15.95,6.6,14.52,14.79A13.91,13.91,0,0,1,869.6,107.71ZM851,96a11.88,11.88,0,0,0,11.72,12.35c7.14.1,12.57-5,12.66-12A12.28,12.28,0,0,0,863.14,84,12.1,12.1,0,0,0,851,96Zm21.81-24.75c2.37,1.26,4.57,2,6.89,1.29a5.42,5.42,0,0,1,3.59.27c4.63,1.55,9.42.57,14.13,1a1.65,1.65,0,0,0,1.75-1.72,2,2,0,0,0-1.44-2,4.93,4.93,0,0,0-2.17-.35c-5.85.15-11.7.25-17.54.51A13.53,13.53,0,0,0,872.77,71.29Zm-11.88,42.47h0c0,1,0,2,0,3,0,1.38.44,2.44,2,2.53s2.42-.85,2.47-2.38c.07-2.05,0-4.11,0-6.16,0-1.07-.46-1.3-1.48-1.42-2.19-.27-3.53.14-3.08,2.75A9.87,9.87,0,0,1,860.89,113.76Zm25.49-39.07c1.73.94,2.93,1.65,4.18,2.25a3.81,3.81,0,0,0,4.18-.24c.46-.35,1.08-.72,1-1.33s-.92-.64-1.43-.65C891.83,74.66,889.38,74.69,886.38,74.69Zm5-5.56c-2.92-2.51-4.15-2.46-6.08,0Z" transform="translate(-63.83 -43.21)"/><path d="M863.1,80.72H879l0,.42H863.14Z" transform="translate(-63.83 -43.21)"/><ellipse cx="806.48" cy="18.31" rx="9.79" ry="0.19"/><path d="M868.14,71.2a9.14,9.14,0,0,1-5.08.06A6.91,6.91,0,0,1,868.14,71.2Z" transform="translate(-63.83 -43.21)"/><path d="M854.41,96.27a8.45,8.45,0,0,1,8.46-8.71c5.41,0,9,3.67,8.92,9a8.69,8.69,0,0,1-17.38-.34Zm16.48,0c0-4.76-3.29-7.88-8.18-7.82A8,8,0,0,0,855,96.21c-.08,4.11,3.87,8.08,8.07,8.13A8,8,0,0,0,870.89,96.22Z" transform="translate(-63.83 -43.21)"/><text class="cls-2" transform="translate(750.46 99.47)">INTER<tspan class="cls-3" x="43.13" y="0">P</tspan><tspan x="53.04" y="0">RE</tspan><tspan class="cls-6" x="72.53" y="0">T</tspan><tspan x="80.08" y="0">AZIONE </tspan><tspan x="32.6" y="16.8">RISU</tspan><tspan class="cls-5" x="66.65" y="16.8">L</tspan><tspan class="cls-12" x="73.99" y="16.8">TA</tspan><tspan x="91.08" y="16.8">TI</tspan></text><circle class="cls-7" cx="733.31" cy="73.06" r="12.19"/><text class="cls-8" transform="translate(729.54 76.41)">4</text></svg>