<svg id="Livello_1" data-name="Livello 1" xmlns="http://www.w3.org/2000/svg" viewBox="0 0 492 276.22"><defs><style>.cls-1{font-size:30px;font-family:MyriadPro-Regular, Myriad Pro;}</style></defs><text class="cls-1" transform="translate(64.22 252.52)">2015</text><text class="cls-1" transform="translate(152.22 104.97)">2017</text><text class="cls-1" transform="translate(292.76 189.86)">2020</text><text class="cls-1" transform="translate(366.22 25.11)">2021</text><path d="M884.74,241" transform="translate(-501 -4.28)"/><path d="M861.32,227.45" transform="translate(-501 -4.28)"/><path d="M616.89,209.14l64.82-84.88,23.25,43C722,143,738.83,119,755.89,94.77l30.51,54,69.07-79.39-11.1-9.69,33.82-11.67c-2.29,11.77-4.52,23.24-6.83,35.1l-11.16-9.6q-37.41,43-74.88,86.06l-30-53.12-51.05,72.67c-7.84-14.48-15.54-28.72-23.39-43.24-.67.78-1.18,1.33-1.64,1.92q-30.53,40-61,80" transform="translate(-501 -4.28)"/></svg>